# xmcd
#
# Track frame offsets: 
#        150
#        24380
#        41172
#        66122
#        89575
#        111002
#        126895
#        161185
#        187672
#        229587
#        253140
#        285767
#
# Disc length: 4108 seconds
#
# Revision: 0
# Processed by: cddbd v1.4PL0 Copyright (c) Steve Scherf et al.
# Submitted via: ExactAudioCopy v0.95a3
#
DISCID=9c100a0c
DTITLE=Wolfe - Delaware Crossing
DYEAR=2003
DGENRE=
TTITLE0=Stranger Blues
TTITLE1=No Returns, No Exchanges
TTITLE2=See What Love Can Do
TTITLE3=Tumblin' Down
TTITLE4=One Last Love
TTITLE5=Thing Get Better
TTITLE6=Black Hearted Woman
TTITLE7=Beg Forgiveness
TTITLE8=Love Gone Bad
TTITLE9=Crowded In My Soul
TTITLE10=Wolfe Jam
TTITLE11=Gates Of Heaven
EXTD=
EXTT0=
EXTT1=
EXTT2=
EXTT3=
EXTT4=
EXTT5=
EXTT6=
EXTT7=
EXTT8=
EXTT9=
EXTT10=
EXTT11=
PLAYORDER=
